<svg width="5774" height="1382" viewBox="0 0 5774 1382" fill="none" xmlns="http://www.w3.org/2000/svg">
<path d="M5499.24 1099.65C5438.08 1099.65 5385.01 1086.3 5340.03 1059.59C5295.04 1032.17 5260.25 995.621 5235.64 949.931C5211.04 904.242 5198.74 853.632 5198.74 798.102C5198.74 740.463 5211.39 689.15 5236.7 644.163C5262.71 599.176 5297.5 563.679 5341.08 537.671C5384.66 511.663 5433.87 498.659 5488.69 498.659C5534.38 498.659 5574.8 506.04 5609.95 520.801C5645.09 534.86 5674.61 554.893 5698.51 580.901C5723.12 606.908 5741.74 637.134 5754.4 671.577C5767.05 705.317 5773.37 742.22 5773.37 782.286C5773.37 793.533 5772.67 804.779 5771.27 816.026C5770.56 826.57 5768.81 835.708 5765.99 843.44H5334.75V727.459H5676.37L5601.51 782.286C5608.54 752.061 5608.19 725.35 5600.46 702.154C5592.72 678.254 5579.02 659.627 5559.34 646.272C5540.36 632.213 5516.81 625.184 5488.69 625.184C5461.28 625.184 5437.73 631.862 5418.05 645.217C5398.37 658.573 5383.61 678.254 5373.77 704.262C5363.93 730.27 5360.06 761.901 5362.17 799.156C5359.36 831.49 5363.22 859.958 5373.77 884.56C5384.31 909.162 5400.48 928.492 5422.27 942.551C5444.06 955.906 5470.42 962.584 5501.35 962.584C5529.46 962.584 5553.36 956.961 5573.04 945.714C5593.43 934.467 5609.24 919.003 5620.49 899.321L5747.02 959.421C5735.77 987.537 5717.84 1012.14 5693.24 1033.23C5669.34 1054.31 5640.87 1070.83 5607.84 1082.78C5574.8 1094.03 5538.6 1099.65 5499.24 1099.65Z" fill="white"/>
<path d="M4845.68 1099.65C4806.32 1099.65 4769.77 1092.62 4736.03 1078.57C4702.99 1063.8 4676.28 1042.36 4655.89 1014.25L4670.66 981.563V1087H4523.04V288.839H4681.2V620.967L4656.95 589.336C4675.93 560.516 4701.58 538.374 4733.92 522.91C4766.96 506.743 4804.56 498.659 4846.74 498.659C4901.56 498.659 4951.12 512.015 4995.4 538.726C5039.69 565.436 5074.83 601.637 5100.84 647.326C5126.85 692.313 5139.85 742.923 5139.85 799.156C5139.85 854.686 5126.85 905.296 5100.84 950.986C5075.54 996.675 5040.74 1032.88 4996.46 1059.59C4952.17 1086.3 4901.91 1099.65 4845.68 1099.65ZM4826.7 957.312C4856.23 957.312 4882.23 950.634 4904.73 937.279C4927.22 923.924 4944.79 905.296 4957.45 881.397C4970.1 857.498 4976.42 830.084 4976.42 799.156C4976.42 768.228 4970.1 741.165 4957.45 717.969C4944.79 694.07 4927.22 675.443 4904.73 662.087C4882.23 648.029 4856.23 641 4826.7 641C4798.59 641 4773.28 647.678 4750.79 661.033C4729 674.388 4711.78 693.016 4699.12 716.915C4687.17 740.814 4681.2 768.228 4681.2 799.156C4681.2 830.084 4687.17 857.498 4699.12 881.397C4711.78 905.296 4729 923.924 4750.79 937.279C4773.28 950.634 4798.59 957.312 4826.7 957.312Z" fill="white"/>
<path d="M4097.07 1099.65C4055.6 1099.65 4019.75 1092.97 3989.52 1079.62C3959.3 1066.26 3936.1 1047.29 3919.93 1022.68C3903.77 997.378 3895.68 967.504 3895.68 933.061C3895.68 900.727 3903.06 872.259 3917.82 847.657C3932.59 822.352 3955.08 801.265 3985.3 784.395C4016.23 767.525 4054.54 755.575 4100.23 748.546L4276.31 720.078V836.059L4128.7 862.418C4106.21 866.636 4088.98 874.016 4077.04 884.56C4065.09 894.401 4059.11 908.811 4059.11 927.79C4059.11 945.362 4065.79 959.069 4079.14 968.91C4092.5 978.751 4109.02 983.671 4128.7 983.671C4154.71 983.671 4177.55 978.048 4197.23 966.801C4216.92 955.555 4232.03 940.442 4242.57 921.463C4253.82 901.782 4259.44 880.343 4259.44 857.146V707.425C4259.44 685.635 4250.66 667.359 4233.08 652.598C4216.21 637.837 4193.02 630.456 4163.49 630.456C4135.38 630.456 4110.42 638.188 4088.63 653.652C4067.55 669.117 4052.08 689.501 4042.24 714.806L3915.72 654.707C3926.96 622.373 3944.89 594.607 3969.49 571.411C3994.09 548.215 4023.61 530.291 4058.06 517.638C4092.5 504.986 4130.11 498.659 4170.87 498.659C4219.38 498.659 4262.25 507.446 4299.51 525.019C4336.76 542.592 4365.58 567.194 4385.97 598.825C4407.05 629.753 4417.6 665.953 4417.6 707.425V1087H4269.99V994.215L4305.83 987.889C4288.96 1013.19 4270.34 1034.28 4249.95 1051.15C4229.57 1067.32 4206.72 1079.27 4181.42 1087C4156.11 1095.43 4128 1099.65 4097.07 1099.65Z" fill="white"/>
<path d="M3298.24 1087V511.312H3445.85V625.184L3437.42 599.879C3450.77 565.436 3472.21 540.131 3501.73 523.964C3531.96 507.094 3567.11 498.659 3607.17 498.659C3650.75 498.659 3688.71 507.797 3721.04 526.073C3754.08 544.349 3779.74 570.005 3798.01 603.042C3816.29 635.377 3825.43 673.334 3825.43 716.915V1087H3667.27V750.655C3667.27 728.161 3662.7 708.831 3653.56 692.664C3645.13 676.497 3632.83 663.845 3616.66 654.707C3601.2 645.569 3582.92 641 3561.83 641C3541.45 641 3523.17 645.569 3507.01 654.707C3490.84 663.845 3478.19 676.497 3469.05 692.664C3460.61 708.831 3456.4 728.161 3456.4 750.655V1087H3298.24Z" fill="white"/>
<path d="M2677.6 1087V511.312H2825.21V625.184L2816.78 599.879C2830.13 565.436 2851.57 540.131 2881.1 523.964C2911.32 507.094 2946.47 498.659 2986.53 498.659C3030.11 498.659 3068.07 507.797 3100.41 526.073C3133.44 544.349 3159.1 570.005 3177.37 603.042C3195.65 635.377 3204.79 673.334 3204.79 716.915V1087H3046.63V750.655C3046.63 728.161 3042.06 708.831 3032.93 692.664C3024.49 676.497 3012.19 663.845 2996.02 654.707C2980.56 645.569 2962.28 641 2941.19 641C2920.81 641 2902.53 645.569 2886.37 654.707C2870.2 663.845 2857.55 676.497 2848.41 692.664C2839.97 708.831 2835.76 728.161 2835.76 750.655V1087H2677.6Z" fill="white"/>
<path d="M2251.63 1099.65C2210.15 1099.65 2174.31 1092.97 2144.08 1079.62C2113.85 1066.26 2090.66 1047.29 2074.49 1022.68C2058.32 997.378 2050.24 967.504 2050.24 933.061C2050.24 900.727 2057.62 872.259 2072.38 847.657C2087.14 822.352 2109.64 801.265 2139.86 784.395C2170.79 767.525 2209.1 755.575 2254.79 748.546L2430.87 720.078V836.059L2283.26 862.418C2260.76 866.636 2243.54 874.016 2231.59 884.56C2219.64 894.401 2213.67 908.811 2213.67 927.79C2213.67 945.362 2220.35 959.069 2233.7 968.91C2247.06 978.751 2263.58 983.671 2283.26 983.671C2309.27 983.671 2332.11 978.048 2351.79 966.801C2371.47 955.555 2386.59 940.442 2397.13 921.463C2408.38 901.782 2414 880.343 2414 857.146V707.425C2414 685.635 2405.21 667.359 2387.64 652.598C2370.77 637.837 2347.57 630.456 2318.05 630.456C2289.93 630.456 2264.98 638.188 2243.19 653.652C2222.1 669.117 2206.64 689.501 2196.8 714.806L2070.27 654.707C2081.52 622.373 2099.44 594.607 2124.05 571.411C2148.65 548.215 2178.17 530.291 2212.61 517.638C2247.06 504.986 2284.66 498.659 2325.43 498.659C2373.93 498.659 2416.81 507.446 2454.07 525.019C2491.32 542.592 2520.14 567.194 2540.52 598.825C2561.61 629.753 2572.16 665.953 2572.16 707.425V1087H2424.54V994.215L2460.39 987.889C2443.52 1013.19 2424.89 1034.28 2404.51 1051.15C2384.13 1067.32 2361.28 1079.27 2335.98 1087C2310.67 1095.43 2282.55 1099.65 2251.63 1099.65Z" fill="white"/>
<path d="M1721.11 1087V648.381H1624.11V511.312H1721.11V502.877C1721.11 457.187 1729.9 418.527 1747.47 386.896C1765.75 355.265 1791.75 331.014 1825.49 314.144C1859.23 297.274 1900 288.839 1947.8 288.839C1956.94 288.839 1966.78 289.542 1977.32 290.948C1987.87 291.651 1996.65 292.705 2003.68 294.111V429.071C1996.65 427.665 1990.33 426.962 1984.7 426.962C1979.78 426.259 1974.51 425.908 1968.89 425.908C1939.37 425.908 1916.87 432.585 1901.41 445.941C1886.65 458.593 1879.27 477.572 1879.27 502.877V511.312H2002.63V648.381H1879.27V1087H1721.11Z" fill="white"/>
<rect width="1199.06" height="1382" rx="95.7983" fill="#FF1B91"/>
<path fill-rule="evenodd" clip-rule="evenodd" d="M248.946 359.537C228.114 359.537 216.554 383.656 229.602 399.895L460.42 687.148C466.385 694.572 461.1 705.598 451.577 705.598H292.187C273.318 705.598 262.695 727.289 274.263 742.195L513.724 1050.76C518.022 1056.3 524.638 1059.54 531.648 1059.54H736.689C751.49 1059.54 759.772 1042.47 750.611 1030.84L644.506 896.181C638.643 888.74 643.943 877.816 653.416 877.816H837.649C854.3 877.816 863.552 858.552 853.144 845.556L759.851 729.059L668.698 620.445C656.308 605.682 666.804 583.172 686.076 583.172H979.11C991.64 583.172 1001.8 573.015 1001.8 560.485V382.225C1001.8 369.695 991.64 359.537 979.11 359.537H248.946Z" fill="black"/>
</svg>
